# xmcd
#
# Track frame offsets:
# 150
# 13005
# 26649
# 42513
# 58685
# 74829
# 88707
# 104516
# 119714
# 134471
#
# Disc length: 1999 seconds
#
# Revision: 0
# Processed by: cddbd v1.5.2PL0 Copyright (c) Steve Scherf et al.
# Submitted via: Axialis_AX_CDPlayer 2.6
#
DISCID=9907cd0a
DTITLE=B.B. King - Blues In My Heart
DYEAR=1900
DGENRE=
TTITLE0=You're Gonna Miss Me
TTITLE1=Got'Em Bad
TTITLE2=Troubles Don't Last
TTITLE3=Your Letter
TTITLE4=I Can't Explain
TTITLE5=The Wrong Road
TTITLE6=I Need You Baby
TTITLE7=So Many Roads
TTITLE8=Down Hearted
TTITLE9=Strange Things
EXTD=www.bbking.com
EXTT0=
EXTT1=
EXTT2=
EXTT3=
EXTT4=
EXTT5=
EXTT6=
EXTT7=
EXTT8=
EXTT9=
PLAYORDER=
